<?xml version="1.0" encoding="iso-8859-1"?>
<!-- Generator: Adobe Illustrator 19.0.0, SVG Export Plug-In . SVG Version: 6.00 Build 0)  -->
<svg version="1.1" id="Layer_1" xmlns="http://www.w3.org/2000/svg" xmlns:xlink="http://www.w3.org/1999/xlink" x="0px" y="0px"
	 viewBox="0 0 512 512" style="enable-background:new 0 0 512 512;" xml:space="preserve">
<rect x="229.609" y="220.528" style="fill:#E6E6E6;" width="183.399" height="291.472"/>
<rect x="229.609" style="fill:#F7B239;" width="183.399" height="183.399"/>
<path style="fill:#2BA5F7;" d="M193.314,328.601V512H9.902v-50.4V328.601H193.314z"/>
<rect x="9.902" style="fill:#E6E6E6;" width="183.412" height="291.485"/>
<polygon style="fill:#E09B2D;" points="120.624,445.844 180.742,512 131.998,512 96.246,472.668 "/>
<path style="fill:#F95428;" d="M136.29,360.074c15.883,0,28.747,12.864,28.747,28.747c0,15.87-12.864,28.747-28.747,28.747
	c-15.87,0-28.747-12.877-28.747-28.747C107.543,372.938,120.42,360.074,136.29,360.074z"/>
<polygon style="fill:#F7B239;" points="96.246,472.668 131.998,512 9.902,512 9.902,461.6 48.036,419.644 "/>
<polygon style="fill:#C93A27;" points="330.864,34.388 311.759,34.388 264.953,34.388 264.953,76.419 284.058,76.419 
	284.058,53.494 311.759,53.494 311.759,131.821 292.654,131.821 292.654,150.927 311.759,150.927 330.864,150.927 349.968,150.927 
	349.968,131.821 330.864,131.821 330.864,53.494 358.564,53.494 358.564,76.419 377.67,76.419 377.67,34.388 "/>
<g>
	<rect x="74.864" y="34.708" style="fill:#808080;" width="84.06" height="15.284"/>
	<rect x="44.297" y="76.064" style="fill:#808080;" width="114.627" height="15.284"/>
	<rect x="44.297" y="117.422" style="fill:#808080;" width="114.627" height="15.284"/>
	<rect x="44.297" y="158.779" style="fill:#808080;" width="114.627" height="15.284"/>
	<rect x="44.297" y="200.136" style="fill:#808080;" width="114.627" height="15.284"/>
	<rect x="44.297" y="241.493" style="fill:#808080;" width="57.314" height="15.284"/>
	<rect x="294.568" y="255.223" style="fill:#808080;" width="84.06" height="15.284"/>
	<rect x="263.999" y="296.58" style="fill:#808080;" width="114.627" height="15.284"/>
	<rect x="263.999" y="337.937" style="fill:#808080;" width="114.627" height="15.284"/>
	<rect x="263.999" y="379.294" style="fill:#808080;" width="114.627" height="15.284"/>
	<rect x="263.999" y="420.651" style="fill:#808080;" width="114.627" height="15.284"/>
	<rect x="263.999" y="462.007" style="fill:#808080;" width="57.314" height="15.284"/>
</g>
<polygon style="fill:#F7B239;" points="483.625,50.673 502.098,50.673 475.982,0.001 449.867,50.673 468.34,50.673 468.34,461.329 
	449.867,461.329 475.982,512 502.098,461.329 483.625,461.329 "/>
<g>
</g>
<g>
</g>
<g>
</g>
<g>
</g>
<g>
</g>
<g>
</g>
<g>
</g>
<g>
</g>
<g>
</g>
<g>
</g>
<g>
</g>
<g>
</g>
<g>
</g>
<g>
</g>
<g>
</g>
</svg>
